<?xml version="1.0" standalone="no"?><!DOCTYPE svg PUBLIC "-//W3C//DTD SVG 1.1//EN" "http://www.w3.org/Graphics/SVG/1.1/DTD/svg11.dtd"><svg t="1628846208312" class="icon" viewBox="0 0 1083 1024" version="1.1" xmlns="http://www.w3.org/2000/svg" p-id="4913" xmlns:xlink="http://www.w3.org/1999/xlink" width="211.5234375" height="200"><defs><style type="text/css"></style></defs><path d="M435.600059 767.115782a259.710145 259.710145 0 1 0 197.441068-480.431537 259.710145 259.710145 0 1 0-197.441068 480.431537Z" fill="#E9EAEB" p-id="4914"></path><path d="M615.884058 474.898551h-4.452174l-415.536232-118.724638c-5.936232-1.484058-8.904348-5.936232-10.388406-11.872464-1.484058-5.936232 1.484058-11.872464 5.936232-14.840579l267.130435-192.927537c4.452174-2.968116 8.904348-2.968116 13.356522-2.968116l415.536232 118.724638c5.936232 1.484058 8.904348 5.936232 10.388405 11.872464 1.484058 5.936232-1.484058 11.872464-5.936231 14.84058l-267.130435 192.927536c-2.968116 1.484058-5.936232 2.968116-8.904348 2.968116z m-381.402899-139.50145l379.918841 108.336232 235.965217-170.666666-379.91884-108.336232-235.965218 170.666666zM309.411246 659.070145l44.492058-32.159536 17.39316 24.041739-44.492058 32.174377zM402.17971 629.24058l-17.808696-23.744928 74.202899-53.426087c2.968116-2.968116 8.904348-2.968116 13.356522-2.968116l89.043478 25.228986-7.42029 28.197101-81.623188-23.744927-69.750725 50.457971zM582.121739 612.09971l8.162319-28.538435 74.188058 21.207189-8.162319 28.538435zM686.361971 642.003478l8.147478-28.538435 59.926261 17.126029-8.162319 28.538435z" fill="#2A5082" p-id="4915"></path><path d="M615.884058 890.434783h-4.452174l-415.536232-118.724638c-5.936232-1.484058-8.904348-5.936232-10.388406-11.872464-1.484058-5.936232 1.484058-11.872464 5.936232-14.84058l89.043479-63.814492 17.808695 23.744927-63.814493 46.005797 379.918841 108.336232 235.965217-170.666666-74.202898-20.776812 7.42029-28.197101 103.884058 29.681159c5.936232 1.484058 8.904348 5.936232 10.388405 11.872464 1.484058 5.936232-1.484058 11.872464-5.936231 14.840579l-267.130435 192.927537c-2.968116 0-5.936232 1.484058-8.904348 1.484058z" fill="#2A5082" p-id="4916"></path><path d="M185.507246 341.333333h29.68116v415.536232h-29.68116zM601.043478 460.057971h29.68116v415.536232h-29.68116zM452.637681 474.898551h29.68116v89.043478h-29.68116zM452.637681 371.014493h29.68116v74.202898h-29.68116zM452.637681 281.971014h29.68116v59.362319h-29.68116zM452.637681 148.405797h29.68116v103.884058h-29.68116zM868.173913 267.130435h29.681159v415.536232h-29.681159z" fill="#2A5082" p-id="4917"></path><path d="M660.405797 875.594203c0 25.228986-19.292754 44.521739-44.521739 44.521739s-44.521739-19.292754-44.521739-44.521739 19.292754-44.521739 44.521739-44.521739 44.521739 19.292754 44.521739 44.521739z" fill="#A3D4FF" p-id="4918"></path><path d="M615.884058 934.956522c-32.649275 0-59.362319-26.713043-59.362319-59.362319s26.713043-59.362319 59.362319-59.362319 59.362319 26.713043 59.362319 59.362319-26.713043 59.362319-59.362319 59.362319z m0-89.043479c-16.324638 0-29.681159 13.356522-29.681159 29.68116s13.356522 29.681159 29.681159 29.681159 29.681159-13.356522 29.681159-29.681159-13.356522-29.681159-29.681159-29.68116z" fill="#2A5082" p-id="4919"></path><path d="M927.536232 682.666667c0 25.228986-19.292754 44.521739-44.521739 44.521739s-44.521739-19.292754-44.521739-44.521739 19.292754-44.521739 44.521739-44.521739 44.521739 19.292754 44.521739 44.521739z" fill="#A3D4FF" p-id="4920"></path><path d="M883.014493 742.028986c-32.649275 0-59.362319-26.713043-59.362319-59.362319s26.713043-59.362319 59.362319-59.362319 59.362319 26.713043 59.362319 59.362319-26.713043 59.362319-59.362319 59.362319z m0-89.043479c-16.324638 0-29.681159 13.356522-29.68116 29.68116s13.356522 29.681159 29.68116 29.681159 29.681159-13.356522 29.681159-29.681159-13.356522-29.681159-29.681159-29.68116z" fill="#2A5082" p-id="4921"></path><path d="M512 563.942029c0 25.228986-19.292754 44.521739-44.521739 44.521739s-44.521739-19.292754-44.521739-44.521739 19.292754-44.521739 44.521739-44.521739 44.521739 19.292754 44.521739 44.521739z" fill="#A3D4FF" p-id="4922"></path><path d="M467.478261 623.304348c-32.649275 0-59.362319-26.713043-59.362319-59.362319s26.713043-59.362319 59.362319-59.362319 59.362319 26.713043 59.362319 59.362319-26.713043 59.362319-59.362319 59.362319z m0-89.043478c-16.324638 0-29.681159 13.356522-29.68116 29.681159s13.356522 29.681159 29.68116 29.681159 29.681159-13.356522 29.681159-29.681159-13.356522-29.681159-29.681159-29.681159z" fill="#2A5082" p-id="4923"></path><path d="M244.869565 756.869565c0 25.228986-19.292754 44.521739-44.521739 44.521739s-44.521739-19.292754-44.521739-44.521739 19.292754-44.521739 44.521739-44.521739 44.521739 19.292754 44.521739 44.521739z" fill="#A3D4FF" p-id="4924"></path><path d="M200.347826 816.231884c-32.649275 0-59.362319-26.713043-59.362319-59.362319s26.713043-59.362319 59.362319-59.362319 59.362319 26.713043 59.362319 59.362319-26.713043 59.362319-59.362319 59.362319z m0-89.043478c-16.324638 0-29.681159 13.356522-29.681159 29.681159s13.356522 29.681159 29.681159 29.68116 29.681159-13.356522 29.68116-29.68116-13.356522-29.681159-29.68116-29.681159z" fill="#2A5082" p-id="4925"></path><path d="M244.869565 341.333333c0 25.228986-19.292754 44.521739-44.521739 44.521739s-44.521739-19.292754-44.521739-44.521739 19.292754-44.521739 44.521739-44.521739 44.521739 19.292754 44.521739 44.521739z" fill="#A3D4FF" p-id="4926"></path><path d="M200.347826 400.695652c-32.649275 0-59.362319-26.713043-59.362319-59.362319s26.713043-59.362319 59.362319-59.362319 59.362319 26.713043 59.362319 59.362319c0 16.324638-5.936232 31.165217-17.808696 41.553624-10.388406 11.872464-25.228986 17.808696-41.553623 17.808695z m0-89.043478c-16.324638 0-29.681159 13.356522-29.681159 29.681159s13.356522 29.681159 29.681159 29.68116c7.42029 0 14.84058-2.968116 20.776812-8.904348 5.936232-5.936232 8.904348-13.356522 8.904348-20.776812 0-16.324638-13.356522-29.681159-29.68116-29.681159z" fill="#2A5082" p-id="4927"></path><path d="M512 148.405797c0 25.228986-19.292754 44.521739-44.521739 44.521739s-44.521739-19.292754-44.521739-44.521739 19.292754-44.521739 44.521739-44.521739 44.521739 19.292754 44.521739 44.521739z" fill="#A3D4FF" p-id="4928"></path><path d="M467.478261 207.768116c-16.324638 0-31.165217-5.936232-41.553623-17.808696-11.872464-11.872464-17.808696-26.713043-17.808696-41.553623 0-32.649275 26.713043-59.362319 59.362319-59.362319s59.362319 26.713043 59.362319 59.362319-26.713043 59.362319-59.362319 59.362319z m0-89.043478c-16.324638 0-29.681159 13.356522-29.68116 29.681159 0 7.42029 2.968116 14.84058 8.904348 20.776812 5.936232 5.936232 13.356522 8.904348 20.776812 8.904348 16.324638 0 29.681159-13.356522 29.681159-29.68116s-13.356522-29.681159-29.681159-29.681159z" fill="#2A5082" p-id="4929"></path><path d="M927.536232 267.130435c0 25.228986-19.292754 44.521739-44.521739 44.521739s-44.521739-19.292754-44.521739-44.521739 19.292754-44.521739 44.521739-44.521739 44.521739 19.292754 44.521739 44.521739z" fill="#A3D4FF" p-id="4930"></path><path d="M883.014493 326.492754c-32.649275 0-59.362319-26.713043-59.362319-59.362319s26.713043-59.362319 59.362319-59.362319 59.362319 26.713043 59.362319 59.362319-26.713043 59.362319-59.362319 59.362319z m0-89.043479c-16.324638 0-29.681159 13.356522-29.68116 29.68116s13.356522 29.681159 29.68116 29.681159 29.681159-13.356522 29.681159-29.681159-13.356522-29.681159-29.681159-29.68116z" fill="#2A5082" p-id="4931"></path><path d="M660.405797 460.057971c0 25.228986-19.292754 44.521739-44.521739 44.521739s-44.521739-19.292754-44.521739-44.521739 19.292754-44.521739 44.521739-44.521739 44.521739 19.292754 44.521739 44.521739z" fill="#A3D4FF" p-id="4932"></path><path d="M615.884058 519.42029c-32.649275 0-59.362319-26.713043-59.362319-59.362319s26.713043-59.362319 59.362319-59.362319 59.362319 26.713043 59.362319 59.362319-26.713043 59.362319-59.362319 59.362319z m0-89.043478c-16.324638 0-29.681159 13.356522-29.681159 29.681159s13.356522 29.681159 29.681159 29.681159 29.681159-13.356522 29.681159-29.681159-13.356522-29.681159-29.681159-29.681159z" fill="#2A5082" p-id="4933"></path></svg>